# xmcd
#
# Track frame offsets:
#   150
#   14104
#   30026
#   48144
#   67194
#   80631
#   97001
#   111196
#   127353
#   151908
#   171743
#   191234
#   203727
#   223709
#   236906
#   251120
#
# Disc length: 3570 seconds
#
# Revision: 0
# Processed by: cddbd v1.5.2PL0 Copyright (c) Steve Scherf et al.
# Submitted via: uFREEDB ActiveX Control 1.5
#
DISCID=f50df010
DTITLE=joao luiz correia and campeirismo - joao luiz correia and campeirismo
DYEAR=1900
DGENRE=Country
TTITLE0=joao luiz 1
TTITLE1=joao luiz 2
TTITLE2=joao luiz 3
TTITLE3=joao luiz 4
TTITLE4=joao luiz 5
TTITLE5=joao luiz 6
TTITLE6=joao luiz 7
TTITLE7=joao luiz 8
TTITLE8=joao luiz 9
TTITLE9=joao luiz 10
TTITLE10=joao luiz 11
TTITLE11=joao luiz 12
TTITLE12=joao luiz 13
TTITLE13=joao luiz 14
TTITLE14=joao luiz 15
TTITLE15=joao luiz 16
EXTD=
EXTT0=
EXTT1=
EXTT2=
EXTT3=
EXTT4=
EXTT5=
EXTT6=
EXTT7=
EXTT8=
EXTT9=
EXTT10=
EXTT11=
EXTT12=
EXTT13=
EXTT14=
EXTT15=
PLAYORDER=
